<?xml version="1.0" encoding="UTF-8"?>
<!--Generator: Apple Native CoreSVG 175.5-->
<!DOCTYPE svg
PUBLIC "-//W3C//DTD SVG 1.1//EN"
       "http://www.w3.org/Graphics/SVG/1.1/DTD/svg11.dtd">
<svg version="1.1" xmlns="http://www.w3.org/2000/svg" xmlns:xlink="http://www.w3.org/1999/xlink" width="3300" height="2200">
 <!--glyph: "uni10090B.medium", point size: 100.0, font version: "18.0d12e2", template writer version: "101"-->
 <style>.monochrome-0 {fill:#000000}
.monochrome-1 {fill:#000000;-sfsymbols-clear-behind:true}

.multicolor-0:tintColor {fill:#007AFF}
.multicolor-1:tintColor {fill:#007AFF;-sfsymbols-clear-behind:true}

.hierarchical-0:secondary {fill:#4D4D4D}
.hierarchical-1:primary {fill:#212121;-sfsymbols-clear-behind:true}

.SFSymbolsPreview007AFF {fill:#007AFF;opacity:1.0}
</style>
 <g id="Notes">
  <rect height="2200" id="artboard" style="fill:white;opacity:1" width="3300" x="0" y="0"/>
  <line style="fill:none;stroke:black;opacity:1;stroke-width:0.5;" x1="263" x2="3036" y1="292" y2="292"/>
  <text style="stroke:none;fill:black;font-family:sans-serif;font-size:13;font-weight:bold;" transform="matrix(1 0 0 1 263 322)">Weight/Scale Variations</text>
  <text style="stroke:none;fill:black;font-family:sans-serif;font-size:13;text-anchor:middle;" transform="matrix(1 0 0 1 559.711 322)">Ultralight</text>
  <text style="stroke:none;fill:black;font-family:sans-serif;font-size:13;text-anchor:middle;" transform="matrix(1 0 0 1 856.422 322)">Thin</text>
  <text style="stroke:none;fill:black;font-family:sans-serif;font-size:13;text-anchor:middle;" transform="matrix(1 0 0 1 1153.13 322)">Light</text>
  <text style="stroke:none;fill:black;font-family:sans-serif;font-size:13;text-anchor:middle;" transform="matrix(1 0 0 1 1449.84 322)">Regular</text>
  <text style="stroke:none;fill:black;font-family:sans-serif;font-size:13;text-anchor:middle;" transform="matrix(1 0 0 1 1746.56 322)">Medium</text>
  <text style="stroke:none;fill:black;font-family:sans-serif;font-size:13;text-anchor:middle;" transform="matrix(1 0 0 1 2043.27 322)">Semibold</text>
  <text style="stroke:none;fill:black;font-family:sans-serif;font-size:13;text-anchor:middle;" transform="matrix(1 0 0 1 2339.98 322)">Bold</text>
  <text style="stroke:none;fill:black;font-family:sans-serif;font-size:13;text-anchor:middle;" transform="matrix(1 0 0 1 2636.69 322)">Heavy</text>
  <text style="stroke:none;fill:black;font-family:sans-serif;font-size:13;text-anchor:middle;" transform="matrix(1 0 0 1 2933.4 322)">Black</text>
  <line style="fill:none;stroke:black;opacity:1;stroke-width:0.5;" x1="263" x2="3036" y1="1903" y2="1903"/>
  <g transform="matrix(1 0 0 1 263 1933)">
   <path d="M9.24805 0.830078C13.5547 0.830078 17.1387-2.74414 17.1387-7.05078C17.1387-11.3574 13.5449-14.9316 9.23828-14.9316C4.94141-14.9316 1.36719-11.3574 1.36719-7.05078C1.36719-2.74414 4.95117 0.830078 9.24805 0.830078ZM9.24805-0.654297C5.70312-0.654297 2.87109-3.49609 2.87109-7.05078C2.87109-10.6055 5.69336-13.4473 9.23828-13.4473C12.793-13.4473 15.6445-10.6055 15.6445-7.05078C15.6445-3.49609 12.8027-0.654297 9.24805-0.654297ZM5.6543-7.05078C5.6543-6.62109 5.95703-6.32812 6.40625-6.32812L8.50586-6.32812L8.50586-4.20898C8.50586-3.76953 8.79883-3.4668 9.22852-3.4668C9.67773-3.4668 9.9707-3.76953 9.9707-4.20898L9.9707-6.32812L12.0898-6.32812C12.5293-6.32812 12.832-6.62109 12.832-7.05078C12.832-7.49023 12.5293-7.79297 12.0898-7.79297L9.9707-7.79297L9.9707-9.90234C9.9707-10.3516 9.67773-10.6543 9.22852-10.6543C8.79883-10.6543 8.50586-10.3516 8.50586-9.90234L8.50586-7.79297L6.40625-7.79297C5.95703-7.79297 5.6543-7.49023 5.6543-7.05078Z"/>
  </g>
  <g transform="matrix(1 0 0 1 281.867 1933)">
   <path d="M11.709 2.91016C17.1582 2.91016 21.6699-1.61133 21.6699-7.05078C21.6699-12.5 17.1484-17.0117 11.6992-17.0117C6.25977-17.0117 1.74805-12.5 1.74805-7.05078C1.74805-1.61133 6.26953 2.91016 11.709 2.91016ZM11.709 1.25C7.09961 1.25 3.41797-2.44141 3.41797-7.05078C3.41797-11.6602 7.08984-15.3516 11.6992-15.3516C16.3086-15.3516 20.0098-11.6602 20.0098-7.05078C20.0098-2.44141 16.3184 1.25 11.709 1.25ZM7.17773-7.05078C7.17773-6.57227 7.50977-6.25 8.00781-6.25L10.8789-6.25L10.8789-3.36914C10.8789-2.88086 11.2109-2.53906 11.6895-2.53906C12.1777-2.53906 12.5195-2.87109 12.5195-3.36914L12.5195-6.25L15.4004-6.25C15.8887-6.25 16.2305-6.57227 16.2305-7.05078C16.2305-7.53906 15.8887-7.88086 15.4004-7.88086L12.5195-7.88086L12.5195-10.752C12.5195-11.25 12.1777-11.5918 11.6895-11.5918C11.2109-11.5918 10.8789-11.25 10.8789-10.752L10.8789-7.88086L8.00781-7.88086C7.50977-7.88086 7.17773-7.53906 7.17773-7.05078Z"/>
  </g>
  <g transform="matrix(1 0 0 1 305.646 1933)">
   <path d="M14.9707 5.66406C21.9336 5.66406 27.6953-0.0976562 27.6953-7.05078C27.6953-14.0137 21.9238-19.7754 14.9609-19.7754C8.00781-19.7754 2.25586-14.0137 2.25586-7.05078C2.25586-0.0976562 8.01758 5.66406 14.9707 5.66406ZM14.9707 3.84766C8.93555 3.84766 4.08203-1.01562 4.08203-7.05078C4.08203-13.0957 8.92578-17.9492 14.9609-17.9492C21.0059-17.9492 25.8691-13.0957 25.8691-7.05078C25.8691-1.01562 21.0156 3.84766 14.9707 3.84766ZM9.19922-7.05078C9.19922-6.5332 9.57031-6.17188 10.1172-6.17188L14.0625-6.17188L14.0625-2.2168C14.0625-1.67969 14.4336-1.29883 14.9512-1.29883C15.4883-1.29883 15.8594-1.66992 15.8594-2.2168L15.8594-6.17188L19.8145-6.17188C20.3516-6.17188 20.7324-6.5332 20.7324-7.05078C20.7324-7.59766 20.3613-7.96875 19.8145-7.96875L15.8594-7.96875L15.8594-11.9141C15.8594-12.4609 15.4883-12.8418 14.9512-12.8418C14.4336-12.8418 14.0625-12.4609 14.0625-11.9141L14.0625-7.96875L10.1172-7.96875C9.57031-7.96875 9.19922-7.59766 9.19922-7.05078Z"/>
  </g>
  <text style="stroke:none;fill:black;font-family:sans-serif;font-size:13;font-weight:bold;" transform="matrix(1 0 0 1 263 1953)">Design Variations</text>
  <text style="stroke:none;fill:black;font-family:sans-serif;font-size:13;" transform="matrix(1 0 0 1 263 1971)">Symbols are supported in up to nine weights and three scales.</text>
  <text style="stroke:none;fill:black;font-family:sans-serif;font-size:13;" transform="matrix(1 0 0 1 263 1989)">For optimal layout with text and other symbols, vertically align</text>
  <text style="stroke:none;fill:black;font-family:sans-serif;font-size:13;" transform="matrix(1 0 0 1 263 2007)">symbols with the adjacent text.</text>
  <line style="fill:none;stroke:#00AEEF;stroke-width:0.5;opacity:1.0;" x1="776" x2="776" y1="1919" y2="1933"/>
  <g transform="matrix(1 0 0 1 776 1933)">
   <path d="M3.31055 0.15625C3.82812 0.15625 4.08203-0.0390625 4.26758-0.585938L5.52734-4.0332L11.2891-4.0332L12.5488-0.585938C12.7344-0.0390625 12.9883 0.15625 13.4961 0.15625C14.0137 0.15625 14.3457-0.15625 14.3457-0.644531C14.3457-0.810547 14.3164-0.966797 14.2383-1.17188L9.6582-13.3691C9.43359-13.9648 9.0332-14.2676 8.4082-14.2676C7.80273-14.2676 7.39258-13.9746 7.17773-13.3789L2.59766-1.16211C2.51953-0.957031 2.49023-0.800781 2.49023-0.634766C2.49023-0.146484 2.80273 0.15625 3.31055 0.15625ZM6.00586-5.51758L8.37891-12.0898L8.42773-12.0898L10.8008-5.51758Z"/>
  </g>
  <line style="fill:none;stroke:#00AEEF;stroke-width:0.5;opacity:1.0;" x1="793.197" x2="793.197" y1="1919" y2="1933"/>
  <text style="stroke:none;fill:black;font-family:sans-serif;font-size:13;font-weight:bold;" transform="matrix(1 0 0 1 776 1953)">Margins</text>
  <text style="stroke:none;fill:black;font-family:sans-serif;font-size:13;" transform="matrix(1 0 0 1 776 1971)">Leading and trailing margins on the left and right side of each symbol</text>
  <text style="stroke:none;fill:black;font-family:sans-serif;font-size:13;" transform="matrix(1 0 0 1 776 1989)">can be adjusted by modifying the x-location of the margin guidelines.</text>
  <text style="stroke:none;fill:black;font-family:sans-serif;font-size:13;" transform="matrix(1 0 0 1 776 2007)">Modifications are automatically applied proportionally to all</text>
  <text style="stroke:none;fill:black;font-family:sans-serif;font-size:13;" transform="matrix(1 0 0 1 776 2025)">scales and weights.</text>
  <g transform="matrix(1 0 0 1 1289 1933)">
   <path d="M2.8418 1.86523L4.54102 3.57422C5.40039 4.44336 6.38672 4.38477 7.31445 3.35938L18.0078-8.42773L17.041-9.4043L6.42578 2.27539C6.07422 2.67578 5.74219 2.77344 5.27344 2.30469L4.10156 1.14258C3.63281 0.683594 3.74023 0.341797 4.14062-0.0195312L15.6152-10.8203L14.6387-11.7871L3.04688-0.898438C2.06055 0.0195312 1.98242 0.996094 2.8418 1.86523ZM9.25781-16.3281C8.83789-15.918 8.80859-15.3418 9.04297-14.9512C9.27734-14.5898 9.73633-14.3555 10.3809-14.5215C11.8457-14.8633 13.3691-14.9219 14.7949-13.9844L14.209-12.5293C13.8672-11.6992 14.043-11.1133 14.5801-10.5664L16.875-8.25195C17.3633-7.76367 17.7734-7.74414 18.3398-7.8418L19.4043-8.03711L20.0684-7.36328L20.0293-6.80664C19.9902-6.30859 20.1172-5.92773 20.6055-5.44922L21.3672-4.70703C21.8457-4.22852 22.4609-4.19922 22.9297-4.66797L25.8398-7.58789C26.3086-8.05664 26.2891-8.65234 25.8105-9.13086L25.0391-9.89258C24.5605-10.3711 24.1895-10.5273 23.7109-10.4883L23.1348-10.4395L22.4902-11.0742L22.7344-12.1973C22.8613-12.7637 22.7051-13.2031 22.1191-13.7891L19.9219-15.9766C16.582-19.2969 12.1484-19.2188 9.25781-16.3281ZM10.752-15.957C13.1836-17.7344 16.4746-17.4316 18.7012-15.2051L21.1328-12.793C21.3672-12.5586 21.4062-12.373 21.3379-12.0312L21.0156-10.5469L22.5195-9.0625L23.5059-9.12109C23.7598-9.13086 23.8379-9.11133 24.0332-8.91602L24.6094-8.33984L22.168-5.89844L21.5918-6.47461C21.3965-6.66992 21.3672-6.74805 21.377-7.01172L21.4453-7.98828L19.9512-9.47266L18.4277-9.21875C18.1055-9.15039 17.959-9.17969 17.7148-9.41406L15.7129-11.416C15.459-11.6504 15.4297-11.8164 15.5859-12.1875L16.4648-14.2773C14.9023-15.7324 12.8711-16.3574 10.8398-15.7617C10.6836-15.7227 10.625-15.8496 10.752-15.957Z"/>
  </g>
  <text style="stroke:none;fill:black;font-family:sans-serif;font-size:13;font-weight:bold;" transform="matrix(1 0 0 1 1289 1953)">Exporting</text>
  <text style="stroke:none;fill:black;font-family:sans-serif;font-size:13;" transform="matrix(1 0 0 1 1289 1971)">Symbols should be outlined when exporting to ensure the</text>
  <text style="stroke:none;fill:black;font-family:sans-serif;font-size:13;" transform="matrix(1 0 0 1 1289 1989)">design is preserved when submitting to Xcode.</text>
  <text id="template-version" style="stroke:none;fill:black;font-family:sans-serif;font-size:13;text-anchor:end;" transform="matrix(1 0 0 1 3036 1933)">Template v.4.0</text>
  <text style="stroke:none;fill:black;font-family:sans-serif;font-size:13;text-anchor:end;" transform="matrix(1 0 0 1 3036 1951)">Requires Xcode 14 or greater</text>
  <text id="descriptive-name" style="stroke:none;fill:black;font-family:sans-serif;font-size:13;text-anchor:end;" transform="matrix(1 0 0 1 3036 1969)">Generated from wrench.and.screwdriver.fill</text>
  <text style="stroke:none;fill:black;font-family:sans-serif;font-size:13;text-anchor:end;" transform="matrix(1 0 0 1 3036 1987)">Typeset at 100 points</text>
  <text style="stroke:none;fill:black;font-family:sans-serif;font-size:13;" transform="matrix(1 0 0 1 263 726)">Small</text>
  <text style="stroke:none;fill:black;font-family:sans-serif;font-size:13;" transform="matrix(1 0 0 1 263 1156)">Medium</text>
  <text style="stroke:none;fill:black;font-family:sans-serif;font-size:13;" transform="matrix(1 0 0 1 263 1586)">Large</text>
 </g>
 <g id="Guides">
  <g id="H-reference" style="fill:#27AAE1;stroke:none;" transform="matrix(1 0 0 1 339 696)">
   <path d="M0.993654 0L3.63775 0L29.3281-67.1323L30.0303-67.1323L30.0303-70.459L28.1226-70.459ZM11.6885-24.4799L46.9815-24.4799L46.2315-26.7285L12.4385-26.7285ZM55.1196 0L57.7637 0L30.6382-70.459L29.4326-70.459L29.4326-67.1323Z"/>
  </g>
  <line id="Baseline-S" style="fill:none;stroke:#27AAE1;opacity:1;stroke-width:0.5;" x1="263" x2="3036" y1="696" y2="696"/>
  <line id="Capline-S" style="fill:none;stroke:#27AAE1;opacity:1;stroke-width:0.5;" x1="263" x2="3036" y1="625.541" y2="625.541"/>
  <g id="H-reference" style="fill:#27AAE1;stroke:none;" transform="matrix(1 0 0 1 339 1126)">
   <path d="M0.993654 0L3.63775 0L29.3281-67.1323L30.0303-67.1323L30.0303-70.459L28.1226-70.459ZM11.6885-24.4799L46.9815-24.4799L46.2315-26.7285L12.4385-26.7285ZM55.1196 0L57.7637 0L30.6382-70.459L29.4326-70.459L29.4326-67.1323Z"/>
  </g>
  <line id="Baseline-M" style="fill:none;stroke:#27AAE1;opacity:1;stroke-width:0.5;" x1="263" x2="3036" y1="1126" y2="1126"/>
  <line id="Capline-M" style="fill:none;stroke:#27AAE1;opacity:1;stroke-width:0.5;" x1="263" x2="3036" y1="1055.54" y2="1055.54"/>
  <g id="H-reference" style="fill:#27AAE1;stroke:none;" transform="matrix(1 0 0 1 339 1556)">
   <path d="M0.993654 0L3.63775 0L29.3281-67.1323L30.0303-67.1323L30.0303-70.459L28.1226-70.459ZM11.6885-24.4799L46.9815-24.4799L46.2315-26.7285L12.4385-26.7285ZM55.1196 0L57.7637 0L30.6382-70.459L29.4326-70.459L29.4326-67.1323Z"/>
  </g>
  <line id="Baseline-L" style="fill:none;stroke:#27AAE1;opacity:1;stroke-width:0.5;" x1="263" x2="3036" y1="1556" y2="1556"/>
  <line id="Capline-L" style="fill:none;stroke:#27AAE1;opacity:1;stroke-width:0.5;" x1="263" x2="3036" y1="1485.54" y2="1485.54"/>
  <line id="left-margin-Ultralight-S" style="fill:none;stroke:#00AEEF;stroke-width:0.5;opacity:1.0;" x1="507.147" x2="507.147" y1="600.785" y2="720.121"/>
  <line id="right-margin-Ultralight-S" style="fill:none;stroke:#00AEEF;stroke-width:0.5;opacity:1.0;" x1="612.275" x2="612.275" y1="600.785" y2="720.121"/>
  <line id="left-margin-Regular-S" style="fill:none;stroke:#00AEEF;stroke-width:0.5;opacity:1.0;" x1="1394.03" x2="1394.03" y1="600.785" y2="720.121"/>
  <line id="right-margin-Regular-S" style="fill:none;stroke:#00AEEF;stroke-width:0.5;opacity:1.0;" x1="1505.65" x2="1505.65" y1="600.785" y2="720.121"/>
  <line id="left-margin-Black-S" style="fill:none;stroke:#00AEEF;stroke-width:0.5;opacity:1.0;" x1="2875.78" x2="2875.78" y1="600.785" y2="720.121"/>
  <line id="right-margin-Black-S" style="fill:none;stroke:#00AEEF;stroke-width:0.5;opacity:1.0;" x1="2991.02" x2="2991.02" y1="600.785" y2="720.121"/>
 </g>
 <g id="Symbols">
  <g id="Black-S" transform="matrix(1 0 0 1 2875.78 696)">
   <path class="monochrome-0 multicolor-0:tintColor hierarchical-0:secondary SFSymbolsPreview007AFF" d="M34.5215-26.123L64.4043-52.3438L43.1641-73.584C36.1816-80.5664 28.5156-80.7129 21.7285-73.9258L14.7949-66.9434C8.00781-60.1074 8.10547-52.5879 15.1367-45.5566ZM90.918 10.6445L99.4141 2.14844C100.879 0.683594 100.83-1.41602 99.6582-3.22266L92.0898-14.6973C91.0156-16.3086 89.3066-17.3828 87.4512-17.6758L84.8145-18.1152L68.2617-34.5703L54.4434-20.0684L70.6055-3.90625L71.0449-1.26953C71.3379 0.585938 72.4609 2.29492 74.0234 3.32031L85.5469 10.9863C87.3535 12.1582 89.4043 12.1582 90.918 10.6445ZM43.1641-47.0703L31.0059-59.2773C29.7852-60.5469 29.7852-62.6465 31.1035-63.8184C32.373-64.9414 34.2285-64.9414 35.4004-63.7695L47.6562-51.5137C48.9258-50.2441 48.877-48.1934 47.6074-47.0215C46.4355-45.8984 44.3848-45.8008 43.1641-47.0703ZM37.207-41.1133L25.0488-53.3203C23.8281-54.5898 23.8281-56.6895 25.1465-57.8613C26.3672-58.9355 28.2715-59.0332 29.4434-57.8125L41.6992-45.5078C42.9199-44.2383 42.9199-42.2363 41.6504-41.0645C40.4297-39.9414 38.4277-39.8438 37.207-41.1133Z"/>
   <path class="monochrome-1 multicolor-1:tintColor hierarchical-1:primary SFSymbolsPreview007AFF" d="M19.3359 5.37109C26.8066 12.793 37.207 12.1582 43.9453 5.37109C51.6113-2.29492 58.0566-19.0918 77.0508-36.1328L69.7266-43.4082C46.6797-20.3613 43.9453-8.88672 36.9141-1.80664C34.0332 1.02539 30.0293 1.66016 26.5137-1.80664C22.998-5.37109 23.6816-9.32617 26.5137-12.207C33.5938-19.2383 45.0195-22.0215 68.0664-45.0684L60.791-52.3926C42.8223-32.4219 26.9531-26.9531 19.2871-19.2871C12.5-12.5488 11.8652-2.14844 19.3359 5.37109ZM31.543-3.17383C33.5938-3.17383 35.2051-4.83398 35.2051-6.83594C35.2051-8.83789 33.5938-10.498 31.543-10.498C29.541-10.498 27.8809-8.83789 27.8809-6.83594C27.8809-4.83398 29.541-3.17383 31.543-3.17383ZM65.0391-40.332C74.5117-30.8105 89.6973-30.4688 98.8281-39.5996C107.031-47.8027 107.812-61.2305 100.146-70.9961L92.8711-63.7207C96.5332-58.1543 95.9473-51.0742 91.6504-46.7773C86.4746-41.6016 77.7832-41.8945 72.2168-47.5098C66.6016-53.0762 66.3574-61.7188 71.5332-66.8945C75.8301-71.2402 82.8613-71.8262 88.4277-68.1641L95.7031-75.4395C85.9375-83.1055 72.5098-82.3242 64.3066-74.1211C55.1758-64.9902 55.5176-49.8047 65.0391-40.332ZM77.5879-57.8613L82.7148-52.832C85.6934-49.9023 89.5508-49.8047 92.3828-52.6367L101.611-61.8164L96.2891-67.1387L89.1602-60.0586C88.4277-59.375 87.9883-59.4238 87.3535-60.0098L84.7656-62.5C84.0332-63.2324 84.082-63.7207 84.7656-64.4531L91.8457-71.582L86.5723-76.8555L77.3438-67.627C74.4629-64.7461 74.5605-60.8398 77.5879-57.8613Z"/>
  </g>
  <g id="Regular-S" transform="matrix(1 0 0 1 1394.03 696)">
   <path class="monochrome-0 multicolor-0:tintColor hierarchical-0:secondary SFSymbolsPreview007AFF" d="M39.209-26.416L63.3301-45.8984L36.0352-73.3887C30.3223-79.1016 24.4629-79.1504 18.8965-73.6328L13.8184-68.5547C8.34961-63.0859 8.39844-57.2266 14.0625-51.5137ZM92.4316 9.32617L96.8262 4.88281C97.5586 4.15039 97.3633 3.22266 96.7285 1.9043L90.0879-11.0352C89.3555-12.4512 87.9395-13.3301 86.6699-13.3301L82.6172-13.4277L62.6953-33.3496L54.1504-24.7559L74.0234-4.88281L74.1211-0.78125C74.1211 0.439453 75.0488 1.9043 76.416 2.58789L89.4531 9.27734C90.6738 9.86328 91.6504 10.1074 92.4316 9.32617ZM41.6992-48.3887L26.6113-63.623C25.9766-64.2578 25.9277-65.2344 26.6113-65.8691C27.1973-66.5039 28.2227-66.5527 28.9062-65.8691L44.043-50.7812C44.6777-50.1465 44.6777-49.1211 43.9941-48.3887C43.457-47.8516 42.334-47.7539 41.6992-48.3887ZM36.6699-43.457L21.5332-58.5449C20.8496-59.1797 20.8984-60.2051 21.5332-60.8887C22.168-61.5234 23.2422-61.4746 23.8281-60.8887L39.0137-45.7031C39.6973-45.0684 39.6484-44.0918 39.0137-43.457C38.3789-42.8223 37.3535-42.8223 36.6699-43.457Z"/>
   <path class="monochrome-1 multicolor-1:tintColor hierarchical-1:primary SFSymbolsPreview007AFF" d="M16.0645 6.05469C22.9004 12.8418 32.0801 12.9395 38.7207 6.15234C47.2168-2.39258 46.3379-12.5977 72.8027-39.0625L69.043-42.7734C39.7461-13.4277 44.3359-8.20312 34.3262 1.85547C30.2246 5.95703 24.6582 6.00586 20.3613 1.75781C16.1133-2.53906 16.1621-8.10547 20.2637-12.207C30.3223-22.2168 35.5469-17.627 64.9414-46.9238L61.1816-50.6348C34.7168-24.2188 24.5605-25.0977 15.9668-16.6504C9.17969-9.91211 9.27734-0.78125 16.0645 6.05469ZM27.2461-0.195312C29.9316-0.195312 32.1289-2.34375 32.1289-5.0293C32.1289-7.71484 29.9316-9.86328 27.2461-9.86328C24.6094-9.86328 22.4121-7.71484 22.4121-5.0293C22.4121-2.34375 24.6094-0.195312 27.2461-0.195312ZM63.6719-41.6016C72.6562-32.5684 86.9629-32.2266 95.6055-40.8691C102.734-47.9004 103.857-59.1797 98.3887-68.3105L94.2383-64.1113C97.5098-57.4707 96.5332-49.8047 91.5527-44.873C85.2051-38.4766 74.5605-38.8672 67.7246-45.6055C60.9375-52.3926 60.5957-63.0859 67.041-69.4336C71.9727-74.3164 79.7363-75.3906 86.1328-72.0215L90.332-76.2207C81.2988-81.6895 70.1172-80.5664 63.0371-73.4375C54.3945-64.8438 54.7363-50.5859 63.6719-41.6016ZM75.1953-58.9355L81.1523-53.0762C84.0332-50.1465 87.8418-50.0977 90.5762-52.7832L98.5352-60.8398L94.7754-64.5996L87.6953-57.5684C86.8164-56.6895 85.5469-56.5918 84.5215-57.5684L79.834-62.3535C78.8086-63.4277 78.7109-64.6484 79.5898-65.5273L86.7676-72.6562L82.8613-76.4648L74.9512-68.5059C72.0703-65.6738 72.2168-61.9141 75.1953-58.9355Z"/>
  </g>
  <g id="Ultralight-S" transform="matrix(1 0 0 1 507.147 696)">
   <path class="monochrome-0 multicolor-0:tintColor hierarchical-0:secondary SFSymbolsPreview007AFF" d="M37.6651-27.9145L57.6084-45.2173L31.1309-71.6631C27.2798-75.5142 22.1016-75.1997 18.0791-71.1807L13.001-66.1026C8.89453-61.9507 8.6709-56.8633 12.5186-53.0576ZM87.6182 8.23634L92.376 3.47511C93.063 2.7881 93.0494 2.042 92.5054 1.26856L84.1392-10.5811C83.6338-11.3159 82.899-11.8316 81.9473-12.0132L77.8492-12.6104L58.1089-32.2144L52.4248-25.2554L71.4805-6.24511L72.1231-2.23436C72.2593-1.28612 72.6875-0.547832 73.6006 0.0903517L85.3208 8.41456C86.2237 9.0459 86.9278 8.92677 87.6182 8.23634ZM41.5176-46.1636L26.2026-61.4888C25.7949-61.8965 25.7915-62.5098 26.2026-62.9175C26.6069-63.2798 27.2236-63.2832 27.6348-62.9175L42.9531-47.6026C43.3609-47.2403 43.3609-46.6236 42.9497-46.1636C42.5942-45.8081 41.9253-45.7559 41.5176-46.1636ZM36.5337-41.1865L21.2153-56.5015C20.8042-56.9092 20.8984-57.6167 21.2153-57.937C21.6685-58.3448 22.334-58.2505 22.6929-57.937L37.9692-42.6607C38.3804-42.253 38.4224-41.6397 38.0147-41.232C37.6069-40.8242 36.9448-40.7788 36.5337-41.1865Z"/>
   <path class="monochrome-1 multicolor-1:tintColor hierarchical-1:primary SFSymbolsPreview007AFF" d="M14.2027 4.55616C20.1304 10.3897 27.9932 10.3965 33.8164 4.60841C41.9947-3.57323 37.5738-10.7813 67.1265-39.562L65.501-41.2295C35.3413-10.8848 39.3863-4.07083 32.2373 3.12694C27.3638 7.95506 20.7984 8.00389 15.7749 3.02929C10.8003-2.03955 10.8492-8.55957 15.6773-13.4785C22.8751-20.582 29.6436-16.5371 60.0371-46.6968L58.3662-48.3189C29.5855-18.7696 22.3355-23.1904 14.1504-15.0156C8.40772-9.23096 8.41456-1.32617 14.2027 4.55616ZM23.9312-0.78564C26.208-0.78564 28.042-2.61621 28.042-4.98389C28.042-7.30616 26.208-9.18213 23.9312-9.18213C21.5669-9.18213 19.6875-7.30616 19.6875-4.98389C19.6875-2.61621 21.5669-0.78564 23.9312-0.78564ZM61.7193-43.0093C69.4322-35.2929 81.9678-35.269 89.6114-42.958C95.6504-48.9902 96.9551-58.0444 93.439-65.4043L91.8316-63.748C94.6035-57.3799 93.3545-49.6685 88.147-44.4644C81.209-37.6138 70.1558-37.5957 63.229-44.4702C56.3511-51.439 56.3272-62.4956 63.1812-69.3882C68.4761-74.5889 76.149-75.8447 82.5454-73.0205L84.1563-74.6768C76.8487-78.2383 67.7559-76.9336 61.7202-70.8946C54.0313-63.209 54.0552-50.6768 61.7193-43.0093ZM73.5151-59.2534L78.0191-54.8017C80.6275-52.1899 83.3462-52.2773 85.9444-54.8721L94.1758-63.1103L92.6865-64.5996L84.5166-56.3877C82.7749-54.6914 81.0967-54.73 79.5264-56.2969L75.1114-60.7188C73.5411-62.2925 73.4888-64.0127 75.1851-65.709L83.4073-73.9277L81.9077-75.375L73.6797-67.1436C71.0713-64.5386 70.9907-61.8232 73.5151-59.2534Z"/>
  </g>
 </g>
</svg>
